<?xml version="1.0" encoding="UTF-8" standalone="no"?>
<svg
   xmlns:dc="http://purl.org/dc/elements/1.1/"
   xmlns:cc="http://creativecommons.org/ns#"
   xmlns:rdf="http://www.w3.org/1999/02/22-rdf-syntax-ns#"
   xmlns:svg="http://www.w3.org/2000/svg"
   xmlns="http://www.w3.org/2000/svg"
   xmlns:sodipodi="http://sodipodi.sourceforge.net/DTD/sodipodi-0.dtd"
   xmlns:inkscape="http://www.inkscape.org/namespaces/inkscape"
   id="svg5212"
   version="1.1"
   viewBox="0 0 188.7284 67.733335"
   height="256"
   width="713.3042"
   sodipodi:docname="logo.svg"
   inkscape:version="0.92.4 (unknown)">
  <sodipodi:namedview
     pagecolor="#ffffff"
     bordercolor="#666666"
     borderopacity="1"
     objecttolerance="10"
     gridtolerance="10"
     guidetolerance="10"
     inkscape:pageopacity="0"
     inkscape:pageshadow="2"
     inkscape:window-width="2560"
     inkscape:window-height="1440"
     id="namedview14"
     showgrid="false"
     fit-margin-top="0"
     fit-margin-left="0"
     fit-margin-right="0"
     fit-margin-bottom="0"
     inkscape:zoom="1.6440233"
     inkscape:cx="414.03881"
     inkscape:cy="198.95047"
     inkscape:window-x="0"
     inkscape:window-y="0"
     inkscape:window-maximized="1"
     inkscape:current-layer="svg5212" />
  <defs
     id="defs5206" />
  <metadata
     id="metadata5209">
    <rdf:RDF>
      <cc:Work
         rdf:about="">
        <dc:format>image/svg+xml</dc:format>
        <dc:type
           rdf:resource="http://purl.org/dc/dcmitype/StillImage" />
        <dc:title></dc:title>
      </cc:Work>
    </rdf:RDF>
  </metadata>
  <path
     inkscape:connector-curvature="0"
     style="fill:#00a7e6;fill-opacity:1;fill-rule:nonzero;stroke:none;stroke-width:0.34124401"
     d="m 30.565495,6e-5 c -1.386474,0 -2.691965,0.346628 -3.836496,0.955748 l -0.07998,0.04649 -5.102165,2.918238 -17.529413,10.035371 -0.02449,0.014 C 2.877083,14.654443 1.910325,15.613109 1.20668,16.823161 0.50167,18.030824 0.143197,19.345534 0.09747,20.652159 v 0.169955 L 0,46.679846 v 0.16996 c 0.03412,1.30629 0.381922,2.6238 1.077718,3.83999 0.692043,1.21176 1.651759,2.17926 2.759778,2.86925 l 22.643574,13.19055 c 1.151359,0.62243 2.464072,0.97896 3.86249,0.98374 h 0.03299 c 1.38511,0 2.688623,-0.34685 3.833495,-0.95325 l 1.754042,-1.00474 20.985508,-12.00885 0.002,-0.002 c 1.114844,-0.68317 2.081101,-1.64289 2.785769,-2.85225 0.703987,-1.20801 1.061034,-2.52121 1.104712,-3.8275 l 0.04299,-10.785177 0.05798,-15.415968 c -0.03549,-1.306963 -0.382945,-2.623823 -1.077718,-3.838995 v -5.12e-4 c -0.694378,-1.213175 -1.65307,-2.179076 -2.759724,-2.8718 L 36.375028,2.098954 34.550006,1.036233 34.462026,0.985243 C 33.313058,0.362814 31.998979,0.004776 30.599537,0 Z m -8.44579,15.201021 h 16.593659 c 4.531719,0 8.205351,3.673813 8.205351,8.204852 v 3.09369 h -5.109662 v -3.094189 c 0,-1.708269 -1.3864,-3.093691 -3.095689,-3.093691 H 22.119705 c -1.707927,0 -3.093691,1.385422 -3.093691,3.093691 v 20.923022 c 0,1.70793 1.385764,3.09319 3.093691,3.09319 h 8.389304 v 5.11117 h -8.389304 c -4.531038,0 -8.203353,-3.67351 -8.203353,-8.20386 V 23.405933 c 0,-4.531039 3.672315,-8.204852 8.203353,-8.204852 z m 19.689348,16.409205 h 5.109662 v 4.513321 h 4.209399 v 5.110159 h -4.209399 v 3.09519 c 0,4.53036 -3.673632,8.20336 -8.205351,8.20336 h -3.093192 v -5.11067 h 3.093192 c 1.708949,0 3.095689,-1.38492 3.095689,-3.09319 v -3.09469 h -6.188881 v -5.110159 h 6.188881 z"
     id="path847" />
  <path
     inkscape:connector-curvature="0"
     d="m 51.127887,36.12383 h -4.209245 v -4.513636 h -5.109447 v 4.513636 h -6.189143 v 5.110126 h 6.189143 v 3.0944 c 0,1.70827 -1.386816,3.09338 -3.095766,3.09338 h -3.093377 v 5.11081 h 3.093377 c 4.531721,0 8.205213,-3.67315 8.205213,-8.2035 v -3.09509 h 4.209245 z"
     style="fill:#bceeff;fill-opacity:0.49803922;fill-rule:nonzero;stroke:none;stroke-width:0.34124404"
     id="path861" />
  <path
     inkscape:connector-curvature="0"
     id="path4591"
     style="font-style:normal;font-variant:normal;font-weight:500;font-stretch:normal;font-size:31.75px;line-height:1.25;font-family:Montserrat;-inkscape-font-specification:'Montserrat Medium';letter-spacing:0px;word-spacing:0px;fill:#004b67;fill-opacity:1;stroke:none;stroke-width:0.26458335"
     d="m 85.231336,22.520876 h -8.66775 v 22.225 h 3.175 v -6.731 h 5.49275 c 5.7785,0 9.271,-2.921 9.271,-7.747 0,-4.826 -3.4925,-7.747 -9.271,-7.747 z m -0.09525,12.73175 h -5.3975 v -9.9695 h 5.3975 c 4.064,0 6.19125,1.80975 6.19125,4.98475 0,3.175 -2.12725,4.98475 -6.19125,4.98475 z" />
  <path
     inkscape:connector-curvature="0"
     id="path4593"
     style="font-style:normal;font-variant:normal;font-weight:500;font-stretch:normal;font-size:31.75px;line-height:1.25;font-family:Montserrat;-inkscape-font-specification:'Montserrat Medium';letter-spacing:0px;word-spacing:0px;fill:#004b67;fill-opacity:1;stroke:none;stroke-width:0.26458335"
     d="m 115.13636,22.520876 v 9.55675 h -12.7635 v -9.55675 h -3.174997 v 22.225 h 3.174997 v -9.906 h 12.7635 v 9.906 h 3.175 v -22.225 z" />
  <path
     inkscape:connector-curvature="0"
     id="path4595"
     style="font-style:normal;font-variant:normal;font-weight:500;font-stretch:normal;font-size:31.75px;line-height:1.25;font-family:Montserrat;-inkscape-font-specification:'Montserrat Medium';letter-spacing:0px;word-spacing:0px;fill:#004b67;fill-opacity:1;stroke:none;stroke-width:0.26458335"
     d="m 133.66249,22.520876 h -8.66775 v 22.225 h 3.175 v -6.731 h 5.49275 c 5.7785,0 9.271,-2.921 9.271,-7.747 0,-4.826 -3.4925,-7.747 -9.271,-7.747 z m -0.0952,12.73175 h -5.3975 v -9.9695 h 5.3975 c 4.064,0 6.19125,1.80975 6.19125,4.98475 0,3.175 -2.12725,4.98475 -6.19125,4.98475 z" />
  <path
     inkscape:connector-curvature="0"
     id="path4597"
     style="font-style:normal;font-variant:normal;font-weight:500;font-stretch:normal;font-size:31.75px;line-height:1.25;font-family:Montserrat;-inkscape-font-specification:'Montserrat Medium';letter-spacing:0px;word-spacing:0px;fill:#004b67;fill-opacity:1;stroke:none;stroke-width:0.26458335"
     d="m 147.35666,44.936376 c 1.143,0 2.0955,-0.92075 2.0955,-2.19075 0,-1.27 -0.9525,-2.159 -2.0955,-2.159 -1.17475,0 -2.159,0.889 -2.159,2.159 0,1.27 0.98425,2.19075 2.159,2.19075 z" />
  <path
     style="font-style:normal;font-variant:normal;font-weight:bold;font-stretch:normal;font-size:31.75px;line-height:1.25;font-family:Montserrat;-inkscape-font-specification:'Montserrat Bold';letter-spacing:0px;word-spacing:0px;fill:#004b67;fill-opacity:1;stroke:none;stroke-width:1"
     d="M 621.32617 83.677734 C 594.56617 83.677734 575.12695 101.79914 575.12695 127.11914 C 575.12695 152.43914 594.5668 170.55859 620.9668 170.55859 C 632.9668 170.55859 645.68578 166.83891 654.92578 159.87891 L 654.92578 140.94531 L 654.92578 125.79883 L 637.16602 125.79883 L 621.07617 125.79883 L 621.07617 140.94531 L 637.16602 140.94531 L 637.16602 150.39844 C 632.24602 153.03844 627.32687 153.99805 622.04688 153.99805 C 605.96688 153.99805 594.80664 142.83914 594.80664 127.11914 C 594.80664 111.15914 605.96516 100.23828 622.28516 100.23828 C 630.80516 100.23828 637.88586 103.23875 644.00586 109.71875 L 656.48633 98.199219 C 648.32633 88.719219 636.08617 83.677734 621.32617 83.677734 z "
     transform="scale(0.26458333)"
     id="path4599" />
  <path
     inkscape:connector-curvature="0"
     id="path4601"
     style="font-style:normal;font-variant:normal;font-weight:bold;font-stretch:normal;font-size:31.75px;line-height:1.25;font-family:Montserrat;-inkscape-font-specification:'Montserrat Bold';letter-spacing:0px;word-spacing:0px;fill:#004b67;fill-opacity:1;stroke:none;stroke-width:0.26458335"
     d="m 187.3949,40.427876 c -0.53975,0.41275 -1.27,0.635 -2.00025,0.635 -1.3335,0 -2.12725,-0.79375 -2.12725,-2.25425 v -6.95325 h 4.2545 v -3.81 h -4.2545 v -4.15925 h -4.953 v 4.15925 h -2.63525 v 3.81 h 2.63525 v 7.01675 c 0,4.064 2.3495,6.12775 6.38175,6.12775 1.524,0 3.01625,-0.34925 4.03225,-1.0795 z" />
</svg>
